<svg width="82" height="52" viewBox="0 0 82 52" fill="none" xmlns="http://www.w3.org/2000/svg">
<path fill-rule="evenodd" clip-rule="evenodd" d="M28.2743 30.4747C22.659 31.9852 18.151 33.009 12.0668 34.1559C10.0124 34.5432 8.30883 34.8906 8.28113 34.9278C8.25327 34.965 8.05968 35.9017 7.85064 37.0089C7.64159 38.1162 7.23895 39.5908 6.95569 40.2853L6.44072 41.5484L4.36724 41.7798C2.01371 42.0425 1.48757 42.3199 1.01944 43.5456C0.512277 44.8732 0.694389 46.1083 1.5572 47.1916C1.86067 47.5727 2.16674 47.7118 2.83429 47.7712C3.31711 47.8144 9.70344 47.2385 17.0262 46.4917L30.3403 45.134L30.6464 45.6955C32.2268 48.5958 34.3171 50.3354 37.1468 51.1057C38.2235 51.3988 41.5892 51.3978 42.6684 51.1043C45.4922 50.3358 47.5843 48.5937 49.1637 45.6955L49.4697 45.134L62.7838 46.4917C70.1066 47.2385 76.4929 47.8144 76.9757 47.7712C77.6411 47.712 77.9515 47.5717 78.258 47.1916C79.3833 45.7969 79.3019 43.6212 78.0823 42.4982C77.6592 42.1085 77.2458 41.9894 75.7614 41.829C74.7682 41.7216 73.8829 41.6013 73.7941 41.5616C73.463 41.4135 72.6246 38.9116 72.2613 36.9873C72.0546 35.8918 71.8642 34.9671 71.8382 34.9321C71.8122 34.8972 69.8677 34.501 67.5169 34.0518C62.9199 33.1736 58.6915 32.2299 54.0608 31.0491C51.3288 30.3525 51.0145 30.3134 48.8576 30.4029C47.113 30.4755 46.2875 30.6059 45.4184 30.9463C43.825 31.5703 42.0965 32.8305 40.9932 34.1721L40.058 35.3098L39.1016 34.1431C38.0612 32.8741 36.0259 31.4241 34.4722 30.8449C33.5611 30.5053 29.142 30.2414 28.2743 30.4747ZM32.9407 33.9438C33.838 34.1541 34.7057 34.5269 35.4836 35.0134C36.6935 35.7701 38.113 37.1262 38.6099 38.6405C38.7941 39.2018 41.2744 39.3719 41.5947 38.6405C42.0574 37.2607 43.0739 36.0302 44.5493 35.0868C46.2932 33.9716 47.1598 33.7345 49.3932 33.7612C50.9554 33.7799 51.8955 33.9379 54.5199 34.6228C58.5858 35.6837 61.4443 36.3244 65.6915 37.1267C67.5432 37.4764 69.2225 37.8318 69.4233 37.9165C69.7079 38.0364 69.8796 38.4186 70.2044 39.6551C70.5632 41.0215 70.5865 41.2399 70.373 41.2399C70.237 41.2399 65.0725 40.7321 58.8966 40.1115C47.6778 38.9842 47.667 38.9836 47.0141 39.3719C46.4399 39.7131 46.2949 39.9464 45.8203 41.2905C44.764 44.2819 43.1794 45.3796 39.9093 45.3851C36.7529 45.3905 34.9894 44.2296 34.0869 41.5521C33.637 40.2175 33.1858 39.5404 32.5209 39.2018C32.2067 39.0418 29.26 39.273 20.8923 40.1138C14.7279 40.7331 9.63442 41.2399 9.57321 41.2399C9.51184 41.2399 9.58851 40.8429 9.74323 40.3575C9.89795 39.8723 10.0741 39.1726 10.1345 38.8026C10.2025 38.3871 10.3707 38.0667 10.5747 37.9645C10.7562 37.8733 12.0411 37.5926 13.4299 37.3406C16.7908 36.7306 21.7337 35.6397 25.2136 34.7396C29.8425 33.5424 30.8049 33.4432 32.9407 33.9438Z" fill="#E2E7E9"/>
<path fill-rule="evenodd" clip-rule="evenodd" d="M24.6251 31.4263C25.8058 31.1291 27.0122 30.8141 28.2743 30.4747C29.142 30.2414 33.5611 30.5053 34.4722 30.8449C36.0259 31.4241 38.0612 32.8741 39.1016 34.1431L40.058 35.3098L40.9932 34.1721C42.0965 32.8305 43.825 31.5703 45.4184 30.9463C46.2875 30.6059 47.113 30.4755 48.8576 30.4029C51.0145 30.3134 51.3288 30.3525 54.0608 31.0491C54.6471 31.1986 55.2267 31.3443 55.8017 31.4866C55.6708 30.7861 55.4578 30.1015 55.166 29.4471C54.6418 28.2718 53.8747 27.2208 52.9153 26.3631C52.7311 24.9777 52.3216 23.6317 51.703 22.3785C53.4374 18.9453 54.7036 15.295 55.4679 11.5253C56.0191 8.665 56.3816 4.76647 54.9753 2.43908C54.6529 1.86587 54.181 1.39092 53.6099 1.06489C53.0388 0.738849 52.3898 0.573952 51.7323 0.587784C47.1838 0.587784 44.3784 8.44709 42.7725 15.4989C41.0812 15.1505 39.3366 15.1505 37.6453 15.4989C36.0394 8.44709 33.234 0.587784 28.6855 0.587784C28.0285 0.57341 27.38 0.737479 26.8089 1.06252C26.2378 1.38756 25.7656 1.8614 25.4425 2.43359C24.0343 4.76098 24.4006 8.6595 24.9499 11.5198C25.7137 15.2914 26.9799 18.9435 28.7148 22.3785C28.0956 23.6334 27.6861 24.9813 27.5025 26.3686C26.5852 27.1898 25.843 28.1875 25.3202 29.3022C25.0018 29.9808 24.7689 30.6943 24.6251 31.4263ZM36.6042 29.8049C36.8054 29.5037 36.9128 29.1497 36.9128 28.7875C36.9128 28.3019 36.7199 27.8361 36.3765 27.4927C36.0331 27.1493 35.5673 26.9564 35.0817 26.9564C34.7195 26.9564 34.3655 27.0638 34.0643 27.265C33.7632 27.4662 33.5285 27.7522 33.3899 28.0868C33.2513 28.4214 33.2151 28.7896 33.2857 29.1448C33.3564 29.5 33.5308 29.8263 33.7869 30.0823C34.043 30.3384 34.3692 30.5128 34.7244 30.5835C35.0796 30.6541 35.4478 30.6179 35.7824 30.4793C36.117 30.3407 36.403 30.106 36.6042 29.8049ZM44.3188 27.265C44.6199 27.0638 44.974 26.9564 45.3361 26.9564C45.8218 26.9564 46.2875 27.1493 46.631 27.4927C46.9744 27.8361 47.1673 28.3019 47.1673 28.7875C47.1673 29.1497 47.0599 29.5037 46.8587 29.8049C46.6575 30.106 46.3715 30.3407 46.0369 30.4793C45.7023 30.6179 45.3341 30.6541 44.9789 30.5835C44.6237 30.5128 44.2974 30.3384 44.0413 30.0823C43.7852 29.8263 43.6108 29.5 43.5402 29.1448C43.4695 28.7896 43.5058 28.4214 43.6444 28.0868C43.783 27.7522 44.0177 27.4662 44.3188 27.265Z" fill="#E2E7E9"/>
<path d="M2.07436 15.87C1.95193 15.6966 1.88644 15.4895 1.88697 15.2772C1.8875 15.065 1.95402 14.8582 2.07731 14.6855C2.20522 14.5104 2.38234 14.3775 2.587 14.3047L3.93796 13.865C4.27658 13.7521 4.58432 13.5621 4.83688 13.3099C5.08944 13.0578 5.27991 12.7503 5.39323 12.4119L5.83601 11.0435C5.90927 10.8411 6.04418 10.6669 6.22173 10.5453C6.39927 10.4237 6.61051 10.3608 6.82566 10.3656C7.04082 10.3704 7.24906 10.4426 7.42102 10.5719C7.59299 10.7013 7.72003 10.8814 7.78423 11.0867L8.22504 12.4395C8.33778 12.7782 8.52776 13.0861 8.77999 13.3388C9.03222 13.5915 9.33977 13.7821 9.67834 13.8955L11.0441 14.3402C11.2453 14.4118 11.4191 14.5443 11.5415 14.7193C11.6639 14.8943 11.7287 15.1031 11.7268 15.3166C11.725 15.5302 11.6566 15.7378 11.5312 15.9107C11.4059 16.0835 11.2297 16.2131 11.0273 16.2812L9.6498 16.7308C9.32031 16.8436 9.02072 17.0298 8.77359 17.2752C8.52646 17.5205 8.33823 17.8188 8.22307 18.1474L7.78325 19.5149C7.71148 19.716 7.57887 19.8898 7.40384 20.0121C7.22881 20.1344 7.02003 20.1992 6.80649 20.1974C6.59295 20.1957 6.38525 20.1276 6.21222 20.0024C6.03919 19.8773 5.90942 19.7014 5.84093 19.4992L5.40307 18.1474C5.29007 17.807 5.09872 17.4978 4.84443 17.2447C4.59014 16.9917 4.28 16.8018 3.93895 16.6904L2.57027 16.2458C2.36954 16.1749 2.19637 16.0431 2.07436 15.87Z" fill="#E2E7E9"/>
<path d="M75.3564 30.5663C75.3742 30.6845 75.4193 30.7969 75.4881 30.8947C75.5798 31.0239 75.7094 31.1214 75.8591 31.1738L76.5992 31.4156C76.7512 31.4644 76.8889 31.5485 77.0027 31.6623C77.1155 31.775 77.2006 31.9127 77.2523 32.0656L77.4885 32.7949C77.5384 32.9475 77.6351 33.0805 77.7649 33.1751C77.8946 33.2696 78.0509 33.321 78.2115 33.3218C78.3721 33.3227 78.5288 33.273 78.6596 33.1798C78.7904 33.0866 78.8885 32.9546 78.94 32.8026L79.181 32.0637C79.2329 31.9149 79.3185 31.7801 79.4311 31.6699C79.5438 31.5596 79.6804 31.4769 79.8303 31.4281L80.5589 31.192C80.7116 31.1423 80.8448 31.0458 80.9395 30.9162C81.0343 30.7866 81.0859 30.6305 81.0869 30.4699C81.088 30.3094 81.0385 30.1526 80.9454 30.0218C80.8524 29.891 80.7205 29.7927 80.5685 29.741L79.8293 29.5001C79.6784 29.4491 79.5414 29.3639 79.4289 29.2511C79.3164 29.1384 79.2316 29.0011 79.181 28.8501L78.9419 28.1199C78.894 27.9661 78.7987 27.8313 78.6696 27.7349C78.5405 27.6385 78.3843 27.5852 78.2232 27.5828C78.062 27.5803 77.9043 27.6288 77.7723 27.7213C77.6404 27.8138 77.541 27.9456 77.4885 28.0979L77.2475 28.8358C77.1978 28.9868 77.1136 29.1245 76.9989 29.2373C76.8856 29.3495 76.7483 29.4344 76.5973 29.4858L75.8686 29.7228C75.7555 29.7616 75.653 29.8261 75.5691 29.9113C75.4853 29.9965 75.4224 30.1001 75.3855 30.2137C75.3486 30.3274 75.3386 30.4481 75.3564 30.5663Z" fill="#E2E7E9"/>
</svg>
